<?xml version="1.0" encoding="UTF-8"?>
<!-- Generator: visioncortex VTracer 0.6.3 -->
<svg version="1.1" xmlns="http://www.w3.org/2000/svg" width="1280" height="1280">
<path d="M0 0 C51.45 -0.02 102.91 -0.03 154.36 -0.04 C155.5 -0.04 155.5 -0.04 156.67 -0.04 C173.2 -0.05 189.74 -0.05 206.28 -0.05 C214.39 -0.05 222.49 -0.05 230.6 -0.05 C231.41 -0.06 232.22 -0.06 233.05 -0.06 C259.23 -0.06 285.4 -0.07 311.58 -0.08 C338.47 -0.09 365.36 -0.09 392.25 -0.09 C396.04 -0.09 399.84 -0.09 403.63 -0.09 C404.38 -0.09 405.13 -0.1 405.89 -0.1 C417.94 -0.1 429.98 -0.1 442.02 -0.11 C454.12 -0.11 466.21 -0.11 478.3 -0.11 C484.86 -0.11 491.42 -0.11 497.98 -0.12 C503.97 -0.12 509.97 -0.12 515.96 -0.12 C518.14 -0.12 520.32 -0.12 522.49 -0.12 C525.44 -0.13 528.38 -0.13 531.32 -0.12 C532.18 -0.13 533.04 -0.13 533.93 -0.13 C539.77 -0.11 539.77 -0.11 542 1 C542 161.05 542 321.1 542 486 C406.12 486.04 406.12 486.04 354.15 486.05 C340.56 486.05 326.97 486.05 313.39 486.05 C311.74 486.05 310.1 486.06 308.45 486.06 C282.23 486.06 256 486.07 229.77 486.08 C202.82 486.09 175.88 486.09 148.93 486.09 C145.13 486.09 141.33 486.09 137.53 486.09 C136.78 486.09 136.03 486.1 135.26 486.1 C123.19 486.1 111.12 486.1 99.05 486.11 C86.93 486.11 74.81 486.11 62.7 486.11 C56.12 486.11 49.55 486.11 42.98 486.12 C36.97 486.12 30.97 486.12 24.96 486.12 C22.78 486.12 20.6 486.12 18.41 486.12 C15.47 486.13 12.52 486.13 9.57 486.12 C8.71 486.13 7.84 486.13 6.95 486.13 C1.11 486.11 1.11 486.11 0 485 C-0.1 482.43 -0.13 479.88 -0.12 477.3 C-0.12 476.48 -0.13 475.66 -0.13 474.82 C-0.13 472.03 -0.12 469.25 -0.12 466.47 C-0.12 464.47 -0.12 462.46 -0.12 460.46 C-0.13 454.94 -0.12 449.41 -0.12 443.88 C-0.11 437.93 -0.11 431.98 -0.11 426.03 C-0.11 415.71 -0.11 405.39 -0.11 395.07 C-0.1 384.25 -0.1 373.42 -0.09 362.6 C-0.09 361.92 -0.09 361.25 -0.09 360.56 C-0.09 357.15 -0.09 353.73 -0.09 350.32 C-0.09 326.11 -0.08 301.91 -0.08 277.71 C-0.07 254.19 -0.06 230.68 -0.05 207.16 C-0.05 206.43 -0.05 205.71 -0.05 204.96 C-0.05 197.69 -0.05 190.41 -0.05 183.14 C-0.05 168.32 -0.05 153.49 -0.04 138.67 C-0.04 137.99 -0.04 137.31 -0.04 136.61 C-0.03 91.07 -0.02 45.54 0 0 Z " fill="#FBFBFB" transform="translate(363,340)"/>
<path d="M0 0 C0.97 -0.01 1.94 -0.02 2.95 -0.03 C4.53 -0.03 4.53 -0.03 6.15 -0.03 C7.25 -0.03 8.34 -0.03 9.47 -0.04 C11.79 -0.04 14.12 -0.05 16.45 -0.04 C19.96 -0.04 23.47 -0.06 26.98 -0.09 C46.42 -0.14 65.98 0.76 81.33 14.27 C82.31 15.1 82.31 15.1 83.31 15.94 C95.61 27.12 100.58 42.42 101.45 58.6 C101.87 74.79 97.8 89.65 87.04 101.88 C79.59 109.7 72.52 113.73 62.39 117.02 C61.75 117.24 61.1 117.45 60.44 117.66 C51.4 120.42 42.08 120.43 32.7 120.41 C31.64 120.41 30.57 120.41 29.47 120.41 C27.23 120.41 24.99 120.41 22.75 120.41 C19.31 120.4 15.87 120.41 12.43 120.41 C10.25 120.41 8.07 120.41 5.89 120.41 C4.86 120.41 3.83 120.41 2.77 120.41 C1.82 120.41 0.87 120.41 -0.1 120.4 C-0.94 120.4 -1.78 120.4 -2.64 120.4 C-4.67 120.27 -4.67 120.27 -6.67 119.27 C-6.72 104.05 -6.75 88.83 -6.77 73.61 C-6.78 66.55 -6.8 59.48 -6.82 52.41 C-6.84 45.6 -6.86 38.78 -6.86 31.97 C-6.86 29.36 -6.87 26.76 -6.88 24.15 C-6.9 20.52 -6.9 16.88 -6.9 13.24 C-6.9 12.16 -6.91 11.07 -6.92 9.95 C-6.92 8.96 -6.91 7.97 -6.91 6.96 C-6.91 6.1 -6.91 5.24 -6.92 4.35 C-6.4 -0.02 -3.74 0.02 0 0 Z " fill="#000000" transform="translate(418.670654296875,426.725341796875)"/>
<path d="M0 0 C7.47 4.78 7.47 4.78 9.9 7.22 C9.88 6.11 9.86 4.99 9.84 3.84 C9.9 0.22 9.9 0.22 10.9 -1.78 C14.88 -1.81 18.86 -1.83 22.84 -1.84 C23.98 -1.85 25.11 -1.86 26.28 -1.87 C27.36 -1.87 28.44 -1.88 29.55 -1.88 C31.06 -1.89 31.06 -1.89 32.59 -1.89 C34.9 -1.78 34.9 -1.78 35.9 -0.78 C36 1.84 36.03 4.43 36.02 7.04 C36.02 7.86 36.02 8.68 36.02 9.53 C36.02 12.25 36.01 14.97 36 17.69 C36 19.57 36 21.46 36 23.34 C35.99 28.3 35.98 33.26 35.97 38.23 C35.96 43.29 35.96 48.35 35.95 53.41 C35.94 63.35 35.92 73.28 35.9 83.22 C31.76 83.25 27.61 83.27 23.46 83.28 C22.28 83.29 21.1 83.3 19.88 83.31 C18.75 83.31 17.63 83.31 16.47 83.32 C14.91 83.32 14.91 83.32 13.31 83.33 C10.9 83.22 10.9 83.22 9.9 82.22 C9.67 76.69 9.67 76.69 10.9 74.22 C9.91 74.22 8.92 74.22 7.9 74.22 C7.62 75.09 7.62 75.09 7.34 75.97 C5.27 79.2 2.28 80.61 -1.1 82.22 C-1.82 82.58 -2.54 82.94 -3.29 83.31 C-11.94 86.1 -23.88 85.47 -32 81.48 C-42.63 75.11 -49.35 66.83 -52.79 54.81 C-55.93 41.01 -54.23 26.2 -46.75 14.02 C-36.43 -0.45 -16.85 -9.06 0 0 Z " fill="#000000" transform="translate(639.09765625,652.78125)"/>
<path d="M0 0 C1.07 0 2.14 0.01 3.25 0.01 C4.41 0.01 5.57 0.02 6.77 0.02 C7.99 0.03 9.21 0.04 10.46 0.06 C12.3 0.06 12.3 0.06 14.17 0.06 C23.26 0.1 23.26 0.1 24.4 1.24 C24.53 3.27 24.58 5.3 24.61 7.32 C24.63 8.62 24.65 9.93 24.67 11.27 C24.68 12.7 24.7 14.13 24.72 15.56 C24.74 17.02 24.76 18.47 24.78 19.93 C24.84 23.77 24.89 27.6 24.93 31.44 C24.98 35.36 25.04 39.27 25.1 43.19 C25.2 50.87 25.3 58.56 25.4 66.24 C26.06 66.24 26.72 66.24 27.4 66.24 C29.26 63.99 31 61.73 32.71 59.37 C33.24 58.66 33.76 57.96 34.3 57.23 C37.24 53.25 40.13 49.23 43.02 45.21 C43.6 44.39 44.19 43.57 44.79 42.73 C45.94 41.13 47.08 39.53 48.21 37.92 C48.73 37.19 49.25 36.47 49.78 35.72 C50.24 35.07 50.7 34.42 51.17 33.75 C52.4 32.24 52.4 32.24 54.4 31.24 C58.95 31.03 63.51 31.06 68.06 31.06 C70.33 31.06 72.59 31.04 74.86 31.02 C76.3 31.02 77.74 31.01 79.18 31.01 C80.49 31.01 81.8 31 83.16 31 C86.4 31.24 86.4 31.24 89.4 33.24 C88.69 33.94 87.97 34.64 87.23 35.36 C84.37 38.22 81.75 41.27 79.15 44.37 C78.67 44.94 78.19 45.51 77.7 46.09 C74.01 50.49 70.37 54.94 66.74 59.4 C63.55 63.28 60.3 67.1 57.03 70.92 C53.01 75 53.01 75 51.5 80.11 C52.76 83.09 54.67 84.97 56.9 87.31 C61.13 91.81 65.09 96.46 68.97 101.28 C70.77 103.48 72.59 105.63 74.46 107.77 C74.99 108.37 75.52 108.98 76.06 109.61 C77.09 110.78 78.12 111.95 79.15 113.12 C82.73 117.22 85.64 121.56 88.4 126.24 C83.65 126.37 78.9 126.46 74.15 126.52 C72.54 126.54 70.92 126.58 69.31 126.62 C66.98 126.68 64.65 126.71 62.33 126.73 C61.25 126.77 61.25 126.77 60.15 126.81 C56.24 126.81 54.6 126.41 51.55 123.88 C50.84 123.01 50.13 122.14 49.4 121.24 C48.29 119.89 48.29 119.89 47.15 118.51 C42.26 112.13 37.5 105.67 32.84 99.12 C32.31 98.38 31.79 97.65 31.25 96.89 C30.76 96.2 30.28 95.51 29.77 94.8 C29.34 94.18 28.91 93.57 28.46 92.94 C27.4 91.24 27.4 91.24 26.4 88.24 C25.74 88.24 25.08 88.24 24.4 88.24 C24.4 100.78 24.4 113.32 24.4 126.24 C19.8 126.26 15.2 126.28 10.46 126.31 C9.01 126.31 7.56 126.32 6.06 126.33 C4.93 126.34 3.79 126.34 2.62 126.34 C0.87 126.35 0.87 126.35 -0.91 126.36 C-3.6 126.24 -3.6 126.24 -4.6 125.24 C-4.7 123.65 -4.73 122.06 -4.73 120.47 C-4.74 119.43 -4.74 118.4 -4.74 117.33 C-4.74 116.19 -4.74 115.05 -4.74 113.87 C-4.75 112.67 -4.75 111.48 -4.75 110.24 C-4.76 106.95 -4.76 103.66 -4.77 100.37 C-4.77 97.63 -4.77 94.88 -4.77 92.14 C-4.78 85.67 -4.78 79.2 -4.78 72.73 C-4.78 66.04 -4.79 59.36 -4.81 52.67 C-4.82 46.94 -4.83 41.21 -4.83 35.48 C-4.83 32.06 -4.83 28.63 -4.84 25.2 C-4.85 21.38 -4.85 17.56 -4.84 13.75 C-4.85 12.6 -4.85 11.46 -4.86 10.29 C-4.85 9.25 -4.85 8.21 -4.85 7.15 C-4.85 6.24 -4.85 5.34 -4.85 4.41 C-4.46 1.03 -3.3 0.31 0 0 Z " fill="#000000" transform="translate(741.597900390625,420.757080078125)"/>
<path d="M0 0 C6.14 6.09 11.01 12.56 13.8 20.79 C14.03 21.45 14.25 22.11 14.48 22.79 C16.63 30.54 15.8 37.42 15.8 45.79 C-5.32 46.12 -26.44 46.45 -48.2 46.79 C-49.57 51.5 -49.57 51.5 -48.2 54.79 C-45.66 58.59 -43.47 61.17 -39.2 62.79 C-29.96 63.99 -29.96 63.99 -21.48 61 C-19.21 58.88 -19.21 58.88 -17.44 56.68 C-14.48 54.19 -12.77 54.31 -8.93 54.36 C-7.73 54.37 -6.53 54.38 -5.29 54.39 C-4.05 54.42 -2.8 54.45 -1.51 54.48 C-0.25 54.49 1.01 54.5 2.31 54.51 C11.64 54.62 11.64 54.62 12.8 55.79 C12.63 63.95 8.03 70.62 2.68 76.54 C-8.08 86.63 -21.56 88.31 -35.56 88.03 C-49.18 87.48 -60.99 81.14 -70.29 71.24 C-79.48 59.41 -80.42 44.18 -79.2 29.79 C-77.14 18.86 -71.29 7.31 -62.5 0.32 C-44.01 -11.94 -18.17 -15.2 0 0 Z " fill="#000000" transform="translate(610.1953125,460.2109375)"/>
<path d="M0 0 C1.16 0.57 1.16 0.57 2.34 1.14 C11.04 6.07 17.33 15.37 20.06 24.88 C21 31 21 31 21 46 C-7.71 46.5 -7.71 46.5 -37 47 C-37.33 47.66 -37.66 48.32 -38 49 C-36.28 54.17 -34.69 56.95 -30 60 C-24.59 61.8 -18.34 62 -13.06 59.75 C-10.94 58.05 -10.94 58.05 -9.22 55.92 C-6.43 53.51 -5.07 53.52 -1.43 53.57 C0.16 53.59 0.16 53.59 1.79 53.6 C2.89 53.63 3.99 53.66 5.12 53.69 C6.23 53.7 7.34 53.71 8.49 53.72 C16.66 53.83 16.66 53.83 19 55 C17.6 63.47 12.84 70.83 6 76 C-3.05 81.26 -9.81 83.19 -20.12 83.25 C-21.02 83.27 -21.92 83.29 -22.85 83.31 C-31.06 83.36 -38.95 82 -45.75 77.12 C-46.85 76.34 -46.85 76.34 -47.96 75.54 C-48.97 74.78 -48.97 74.78 -50 74 C-50.58 73.57 -51.16 73.15 -51.75 72.71 C-59.45 66.73 -62.41 58.23 -64.75 49.06 C-66.02 33.54 -63.55 20.09 -53.22 7.9 C-39.8 -5.01 -16.55 -8.74 0 0 Z " fill="#000000" transform="translate(817,654)"/>
<path d="M0 0 C1.03 0.41 2.06 0.82 3.12 1.25 C9.6 5.19 14.84 11.1 18 18 C18.44 19.91 18.82 21.83 19.14 23.77 C19.3 24.75 19.47 25.73 19.64 26.74 C19.76 27.49 19.88 28.23 20 29 C15.92 29.12 11.83 29.19 7.75 29.25 C6.59 29.28 5.43 29.32 4.24 29.35 C3.12 29.36 2.01 29.38 0.86 29.39 C-0.17 29.41 -1.19 29.43 -2.25 29.45 C-6.74 28.71 -8.4 25.78 -11.06 22.31 C-12.86 19.76 -12.86 19.76 -16 19 C-21.18 18.7 -25.14 19.41 -30 21 C-30.1 22.26 -30.21 23.52 -30.31 24.81 C-30.37 25.52 -30.43 26.23 -30.49 26.96 C-30.18 29.23 -30.18 29.23 -27.82 30.52 C-25 32 -22.47 32.86 -19.39 33.65 C-17.79 34.07 -17.79 34.07 -16.16 34.51 C-13.95 35.08 -11.74 35.65 -9.52 36.22 C-0.63 38.59 8.42 41.18 14.5 48.5 C15.44 49.6 15.44 49.6 16.41 50.72 C21.32 57.75 20.64 65.79 20 74 C18.4 80.69 13.58 85.24 8 89 C-4.28 95.17 -19.95 96.2 -33.25 92.75 C-34.85 92.21 -36.44 91.63 -38 91 C-38.7 90.72 -39.4 90.44 -40.12 90.16 C-42.18 89.23 -44.07 88.18 -46 87 C-47.13 86.31 -47.13 86.31 -48.28 85.61 C-54.75 81.17 -58.65 75.52 -61 68 C-60.54 63.54 -60.54 63.54 -59 62 C-54.91 61.64 -50.8 61.63 -46.69 61.56 C-44.96 61.49 -44.96 61.49 -43.19 61.42 C-40.02 61.38 -37.12 61.41 -34 62 C-31.36 64.91 -31.36 64.91 -30 68 C-23.84 72.47 -17.99 72.58 -10.56 71.5 C-9.72 71.34 -8.87 71.17 -8 71 C-7.92 69.76 -7.84 68.52 -7.75 67.25 C-7.7 66.55 -7.66 65.86 -7.61 65.14 C-8.18 62.04 -9.61 61.02 -12 59 C-14.9 57.83 -14.9 57.83 -18.16 57.07 C-19.37 56.75 -20.57 56.43 -21.82 56.1 C-24.33 55.46 -26.85 54.81 -29.36 54.18 C-40.53 51.2 -50.48 47.02 -57 37 C-59.93 30.63 -59.38 23.98 -57.13 17.49 C-53.61 9.53 -48.5 4.05 -40.55 0.43 C-27.12 -4.57 -13.43 -5.74 0 0 Z " fill="#000000" transform="translate(698,454)"/>
<path d="M0 0 C2.57 2.17 4.49 3.98 6 7 C5.89 8.54 5.76 10.08 5.62 11.62 C5.6 15.76 6.08 17.75 8.88 20.81 C9.5 21.44 10.13 22.08 10.77 22.73 C13.55 25.57 16.03 28.58 18.5 31.69 C19.19 32.51 19.19 32.51 19.89 33.34 C21.75 35.69 22.98 37.34 23.07 40.39 C21.2 44.95 18.61 49.08 16.06 53.29 C15.66 53.98 15.25 54.67 14.84 55.38 C14.46 56.01 14.08 56.63 13.7 57.27 C12.7 59.19 12.7 59.19 14 62 C15.73 63.27 15.73 63.27 17.81 64.38 C21.37 66.47 23.56 68.63 26 72 C28.54 73.27 30.39 73.14 33.23 73.18 C34.28 73.2 35.33 73.22 36.41 73.25 C38.62 73.29 40.83 73.32 43.04 73.34 C49.28 73.51 53.3 73.73 58 78 C60.1 81.14 60.25 81.84 60.24 85.42 C60.24 86.78 60.24 86.78 60.25 88.16 C60.24 89.65 60.24 89.65 60.23 91.16 C60.23 92.21 60.23 93.25 60.23 94.33 C60.23 97.78 60.21 101.24 60.2 104.7 C60.19 107.09 60.19 109.49 60.19 111.88 C60.18 118.19 60.16 124.5 60.14 130.81 C60.12 137.24 60.11 143.68 60.1 150.11 C60.08 162.74 60.04 175.37 60 188 C52.25 188.12 52.25 188.12 50 187 C49.99 185.78 49.99 184.56 49.98 183.31 C49.93 171.83 49.85 160.35 49.76 148.87 C49.72 142.97 49.68 137.07 49.65 131.17 C49.63 125.48 49.59 119.79 49.54 114.09 C49.52 111.92 49.51 109.75 49.5 107.57 C49.49 104.53 49.46 101.49 49.43 98.45 C49.43 97.55 49.44 96.65 49.44 95.72 C49.38 92.27 49.27 89.63 47.91 86.44 C45 84.24 42.65 84.48 39.04 84.45 C38.33 84.44 37.62 84.43 36.89 84.42 C34.51 84.39 32.14 84.39 29.77 84.39 C28.09 84.38 26.41 84.36 24.73 84.34 C20.22 84.3 15.7 84.28 11.18 84.26 C6.51 84.24 1.85 84.2 -2.82 84.17 C-10.32 84.11 -17.82 84.08 -25.32 84.05 C-32.75 84.02 -40.17 83.97 -47.59 83.9 C-53.61 83.85 -59.64 83.8 -65.66 83.77 C-68.09 83.76 -70.51 83.74 -72.94 83.72 C-76.27 83.69 -79.6 83.68 -82.93 83.67 C-83.89 83.66 -84.85 83.65 -85.84 83.63 C-92.45 83.64 -92.45 83.64 -98 87 C-101.28 92.18 -101.44 96.47 -101.43 102.4 C-101.44 103.33 -101.45 104.26 -101.46 105.21 C-101.49 108.26 -101.5 111.32 -101.51 114.37 C-101.53 116.49 -101.55 118.61 -101.57 120.73 C-101.61 126.3 -101.64 131.88 -101.67 137.45 C-101.7 143.14 -101.75 148.83 -101.79 154.52 C-101.88 165.68 -101.94 176.84 -102 188 C-108.75 188.12 -108.75 188.12 -111 187 C-111.09 173.69 -111.16 160.38 -111.21 147.07 C-111.23 140.89 -111.26 134.71 -111.3 128.53 C-111.35 122.57 -111.37 116.6 -111.38 110.64 C-111.39 108.36 -111.4 106.09 -111.42 103.82 C-111.45 100.63 -111.46 97.44 -111.45 94.25 C-111.47 93.31 -111.48 92.37 -111.5 91.41 C-111.46 85.42 -110.62 81.84 -107 77 C-102.9 73.46 -98.72 73.6 -93.54 73.68 C-92.7 73.68 -91.86 73.68 -91 73.68 C-89.18 73.69 -87.36 73.7 -85.54 73.71 C-82.66 73.73 -79.78 73.74 -76.9 73.73 C-68.72 73.72 -60.53 73.73 -52.35 73.79 C-47.34 73.82 -42.33 73.82 -37.31 73.8 C-35.41 73.8 -33.5 73.81 -31.59 73.83 C-28.92 73.87 -26.26 73.86 -23.59 73.84 C-22.41 73.87 -22.41 73.87 -21.21 73.9 C-17.84 73.84 -15.81 73.72 -13.23 71.43 C-11.62 69.56 -11.62 69.56 -10.27 67.61 C-8.45 65.3 -6.54 64.9 -3.75 64.19 C2.31 61.73 4.68 57.62 7.75 52.12 C8.19 51.35 8.63 50.57 9.09 49.76 C11.04 46.02 11.99 43.54 12.05 39.26 C10.83 35.46 9.29 33.52 6.5 30.69 C2.04 26.08 2.04 26.08 1 24 C-0.49 23.5 -0.49 23.5 -2 23 C-2.19 23.6 -2.39 24.21 -2.59 24.83 C-2.85 25.63 -3.11 26.43 -3.38 27.25 C-3.76 28.43 -3.76 28.43 -4.15 29.64 C-4.95 31.87 -5.9 33.91 -7 36 C-11.77 34.84 -13.83 32.11 -16.82 28.5 C-20.04 24.81 -23.56 21.43 -27.09 18.04 C-28.43 16.73 -29.72 15.37 -31 14 C-31 13.34 -31 12.68 -31 12 C-30.48 11.81 -29.96 11.62 -29.43 11.42 C-27.05 10.54 -24.68 9.65 -22.31 8.75 C-21.5 8.45 -20.68 8.15 -19.84 7.84 C-15.25 6.09 -11.71 4.32 -8 1 C-5.11 -0.44 -3.2 -0.38 0 0 Z " fill="#000000" transform="translate(514,559)"/>
<path d="M0 0 C0.95 0 1.89 0.01 2.87 0.01 C3.9 0.01 4.92 0.02 5.98 0.02 C7.06 0.03 8.13 0.04 9.24 0.06 C10.32 0.06 11.4 0.06 12.51 0.06 C20.54 0.1 20.54 0.1 21.68 1.24 C21.76 2.66 21.78 4.08 21.78 5.5 C21.77 6.35 21.77 7.2 21.77 8.08 C21.75 9.43 21.75 9.43 21.74 10.81 C21.74 11.71 21.73 12.61 21.73 13.54 C21.71 15.77 21.7 18.01 21.68 20.24 C22.82 20.3 23.96 20.36 25.14 20.43 C26.63 20.51 28.12 20.6 29.61 20.68 C30.37 20.72 31.12 20.76 31.9 20.8 C37.56 21.13 37.56 21.13 38.68 22.24 C38.76 23.73 38.78 25.22 38.78 26.72 C38.77 27.61 38.77 28.51 38.77 29.44 C38.75 30.86 38.75 30.86 38.74 32.31 C38.74 33.25 38.73 34.2 38.73 35.18 C38.71 37.54 38.7 39.89 38.68 42.24 C30.76 42.74 30.76 42.74 22.68 43.24 C22.68 56.11 22.68 68.98 22.68 82.24 C26.76 83.61 30.78 83.67 35.06 83.96 C37.68 84.24 37.68 84.24 38.68 85.24 C38.76 86.8 38.78 88.37 38.78 89.93 C38.77 90.88 38.77 91.82 38.77 92.8 C38.75 94.29 38.75 94.29 38.74 95.81 C38.74 96.8 38.73 97.8 38.73 98.83 C38.71 101.3 38.7 103.77 38.68 106.24 C13.14 107.17 13.14 107.17 2.74 99.68 C-6.68 90.15 -4.99 75.43 -5.07 63.06 C-5.1 61.03 -5.13 59.01 -5.16 56.99 C-5.24 52.07 -5.29 47.16 -5.32 42.24 C-5.96 42.25 -6.6 42.27 -7.26 42.28 C-8.08 42.29 -8.91 42.3 -9.76 42.31 C-10.58 42.32 -11.41 42.33 -12.26 42.34 C-14.32 42.24 -14.32 42.24 -15.32 41.24 C-15.45 38.25 -15.51 35.3 -15.51 32.31 C-15.52 31.47 -15.53 30.63 -15.55 29.77 C-15.55 28.97 -15.55 28.17 -15.55 27.34 C-15.56 26.6 -15.56 25.87 -15.57 25.11 C-15.32 23.24 -15.32 23.24 -13.32 21.24 C-11.16 21.05 -11.16 21.05 -8.7 21.12 C-7.47 21.14 -7.47 21.14 -6.22 21.17 C-5.28 21.21 -5.28 21.21 -4.32 21.24 C-4.33 20.68 -4.34 20.11 -4.35 19.53 C-4.4 16.98 -4.42 14.42 -4.45 11.87 C-4.46 10.98 -4.48 10.09 -4.5 9.17 C-4.5 8.32 -4.51 7.47 -4.52 6.59 C-4.53 5.81 -4.54 5.02 -4.55 4.21 C-4.19 1.12 -3.02 0.32 0 0 Z " fill="#000000" transform="translate(703.322509765625,629.757080078125)"/>
<path d="M0 0 C11.05 0.02 22.85 0.31 31.24 8.55 C40.35 19.73 42 31.41 40.73 45.38 C38.93 54.19 34.77 60.2 27.79 65.69 C19.51 70.26 10.58 70.46 1.35 70.51 C0.28 70.51 0.28 70.51 -0.81 70.52 C-6.03 70.5 -6.03 70.5 -8.27 69.38 C-8.32 60.68 -8.35 51.98 -8.38 43.28 C-8.39 39.24 -8.4 35.2 -8.42 31.16 C-8.45 27.26 -8.46 23.36 -8.46 19.47 C-8.47 17.98 -8.47 16.49 -8.48 15 C-8.5 12.92 -8.5 10.84 -8.5 8.76 C-8.5 7.57 -8.51 6.39 -8.51 5.16 C-8.04 -0.36 -4.82 0.09 0 0 Z " fill="#FCFCFC" transform="translate(449.2724609375,451.61962890625)"/>
<path d="M0 0 C1.17 -0.01 2.34 -0.01 3.54 -0.02 C4.8 -0.01 6.06 -0 7.37 0.01 C8.66 0.01 9.96 0.01 11.29 0.01 C14.04 0.01 16.78 0.02 19.52 0.04 C23.03 0.06 26.54 0.06 30.06 0.05 C33.41 0.05 36.76 0.06 40.12 0.07 C41.38 0.07 42.64 0.07 43.94 0.07 C45.69 0.08 45.69 0.08 47.48 0.1 C48.51 0.1 49.54 0.11 50.61 0.11 C54.39 0.48 56.49 1.47 59.03 4.27 C61.01 9.09 60.78 13.78 60.74 18.93 C60.76 19.98 60.78 21.02 60.8 22.09 C60.8 23.59 60.8 23.59 60.8 25.13 C60.8 26.04 60.81 26.95 60.81 27.89 C60.14 31.22 58.96 32.27 56.31 34.37 C53.45 34.86 53.45 34.86 50.1 34.84 C48.85 34.85 47.59 34.85 46.3 34.85 C44.93 34.83 43.57 34.82 42.21 34.8 C40.8 34.79 39.4 34.79 38 34.79 C35.07 34.78 32.13 34.76 29.2 34.73 C25.43 34.69 21.67 34.67 17.91 34.66 C14.32 34.65 10.73 34.63 7.14 34.61 C6.11 34.61 6.11 34.61 5.06 34.6 C3.13 34.59 1.19 34.57 -0.75 34.55 C-1.85 34.54 -2.95 34.53 -4.09 34.52 C-6.69 34.37 -6.69 34.37 -8.69 33.37 C-8.77 29.15 -8.82 24.94 -8.86 20.72 C-8.87 19.29 -8.89 17.85 -8.92 16.42 C-8.96 14.35 -8.97 12.29 -8.99 10.23 C-9 8.99 -9.02 7.75 -9.03 6.47 C-8.69 3.37 -8.69 3.37 -7.53 1.7 C-4.96 -0.16 -3.15 -0 0 0 Z " fill="#000000" transform="translate(493.693115234375,695.627685546875)"/>
<path d="M0 0 C1.03 -0 2.05 -0 3.11 -0 C4.86 -0.01 4.86 -0.01 6.64 -0.03 C8.53 -0.01 8.53 -0.01 10.46 0.01 C11.75 0 13.04 0 14.38 0 C17.11 -0 19.85 0.01 22.59 0.03 C26.1 0.06 29.6 0.06 33.1 0.05 C36.45 0.04 39.8 0.05 43.14 0.07 C44.4 0.06 45.65 0.06 46.95 0.06 C48.7 0.08 48.7 0.08 50.5 0.1 C52.04 0.11 52.04 0.11 53.61 0.11 C56.91 0.57 58.77 1.53 61.43 3.5 C64.47 8.06 63.76 12.57 63.75 17.94 C63.76 18.99 63.78 20.04 63.79 21.12 C63.79 22.13 63.8 23.14 63.8 24.18 C63.8 25.11 63.8 26.03 63.81 26.98 C63.36 29.98 62.52 31.33 60.43 33.5 C57.22 34.57 54.9 34.63 51.52 34.63 C49.7 34.64 49.7 34.64 47.84 34.64 C46.53 34.64 45.22 34.64 43.87 34.63 C42.51 34.63 41.15 34.64 39.79 34.64 C36.95 34.64 34.1 34.64 31.25 34.63 C27.6 34.63 23.95 34.63 20.3 34.64 C17.5 34.64 14.69 34.64 11.89 34.64 C9.89 34.63 7.89 34.64 5.88 34.64 C4.67 34.64 3.46 34.63 2.21 34.63 C1.14 34.63 0.07 34.63 -1.03 34.63 C-3.57 34.5 -3.57 34.5 -5.57 33.5 C-5.64 29.44 -5.7 25.39 -5.73 21.33 C-5.75 19.95 -5.77 18.57 -5.79 17.19 C-5.83 15.21 -5.85 13.22 -5.86 11.24 C-5.88 10.04 -5.89 8.85 -5.91 7.62 C-5.44 3.36 -4.43 0.86 0 0 Z " fill="#000000" transform="translate(490.5669860839844,651.4987945556641)"/>
<path d="M0 0 C4.31 3.53 7.03 6.95 8.75 12.25 C9.05 15.81 9.05 15.81 9.06 19.69 C9.08 20.96 9.1 22.24 9.11 23.56 C8.48 29.99 5.65 34.15 0.75 38.25 C-4.92 40.84 -9.91 41.03 -15.81 39.06 C-21.21 36.22 -25.61 33.28 -27.78 27.33 C-29.4 20.15 -28.89 12.71 -25.25 6.25 C-18.8 -2.1 -9.41 -5.07 0 0 Z " fill="#FCFCFC" transform="translate(640.25,674.75)"/>
<path d="M0 0 C4.21 3.73 5.97 8.1 6.62 13.62 C5.99 18.46 3.92 21.83 0.19 24.94 C-5.35 26.78 -11.82 27.11 -17.31 24.96 C-21 22.75 -23.18 21 -24.81 16.94 C-25.54 11.52 -24.46 8.13 -21.42 3.74 C-15.39 -3.02 -8.03 -3.03 0 0 Z " fill="#000000" transform="translate(873.8125,711.0625)"/>
<path d="M0 0 C178.53 0 357.06 0 541 0 C541 0.33 541 0.66 541 1 C362.47 1 183.94 1 0 1 C0 0.67 0 0.34 0 0 Z " fill="#000000" transform="translate(364,827)"/>
<path d="M0 0 C0.33 0 0.66 0 1 0 C1 160.38 1 320.76 1 486 C0.67 486 0.34 486 0 486 C0 325.62 0 165.24 0 0 Z " fill="#000000" transform="translate(906,341)"/>
<path d="M0 0 C3.32 2.31 5.43 4.52 7.69 7.88 C8.18 11.34 8.18 11.34 8.69 14.88 C-2.86 14.88 -14.41 14.88 -26.31 14.88 C-25.33 8.97 -24.52 5.28 -19.62 1.61 C-13.3 -2.02 -6.85 -2.33 0 0 Z " fill="#FCFCFC" transform="translate(587.3125,475.125)"/>
<path d="M0 0 C3 2.49 4.84 4.77 7 8 C7 9.65 7 11.3 7 13 C-3.23 13 -13.46 13 -24 13 C-24.33 12.34 -24.66 11.68 -25 11 C-22.21 5 -18.93 1.21 -12.81 -1.31 C-8.06 -2.17 -4.48 -1.8 0 0 Z " fill="#FCFCFC" transform="translate(804,672)"/>
<path d="M0 0 C1.15 -0.02 2.31 -0.05 3.5 -0.07 C4.6 -0.08 5.71 -0.08 6.84 -0.09 C7.86 -0.09 8.87 -0.1 9.91 -0.11 C12.5 0.38 12.5 0.38 14.37 2.24 C15.5 4.38 15.5 4.38 15.25 7.06 C14.5 9.38 14.5 9.38 13.5 10.38 C9.07 10.66 4.63 10.61 0.19 10.62 C-1.06 10.65 -2.31 10.67 -3.6 10.69 C-4.8 10.69 -6 10.7 -7.24 10.7 C-8.34 10.71 -9.45 10.72 -10.58 10.73 C-13.8 10.34 -15.15 9.54 -17.5 7.38 C-14.48 -1.45 -8.12 0.01 0 0 Z " fill="#FCFCFC" transform="translate(520.5,704.625)"/>
<path d="M0 0 C1.65 -0.04 1.65 -0.04 3.34 -0.07 C4.39 -0.08 5.45 -0.08 6.54 -0.09 C7.5 -0.09 8.46 -0.1 9.46 -0.11 C11.94 0.38 11.94 0.38 13.76 2.24 C15.18 4.82 15.25 6.47 14.94 9.38 C12.19 12.12 3.77 10.56 0.06 10.56 C-1.9 10.58 -1.9 10.58 -3.89 10.6 C-5.77 10.6 -5.77 10.6 -7.68 10.61 C-8.83 10.61 -9.98 10.61 -11.17 10.62 C-14.06 10.38 -14.06 10.38 -17.06 8.38 C-16.81 5.5 -16.81 5.5 -16.06 2.38 C-11.37 -0.87 -5.46 0.01 0 0 Z " fill="#FCFCFC" transform="translate(521.0625,660.625)"/>
<path d="" fill="#000000" transform="translate(0,0)"/>
</svg>
